<svg xmlns="http://www.w3.org/2000/svg" viewBox="0 0 40 40" width="40" height="40">
  <path d="M20 3 C11 3 4 10 4 20 C4 29 11 36 20 37 C19 30 19 24 22 19 C25 14 31 12 36 12 C34 6 28 3 20 3 Z" fill="url(#gradLeaf)"/>
  <circle cx="14" cy="20" r="1.6" fill="#fff"/>
  <circle cx="20" cy="15" r="1.6" fill="#fff"/>
  <circle cx="20" cy="26" r="1.6" fill="#fff"/>
  <circle cx="27" cy="20" r="1.6" fill="#fff"/>
  <path d="M14 20 L20 15 M14 20 L20 26 M20 15 L27 20 M20 26 L27 20" stroke="#fff" stroke-width="1" opacity="0.8"/>
  <defs>
    <linearGradient id="gradLeaf" x1="0" y1="0" x2="1" y2="1">
      <stop offset="0" stop-color="#1F9D66"/>
      <stop offset="1" stop-color="#0E7C82"/>
    </linearGradient>
  </defs>
</svg>
